simulation
nRows=67
nColumns=15
endheader
time  TH_x TH_y TH_z SC_y  SC_z  SC_x  AC_y  AC_z  AC_x  GH_y  GH_z  GH_yy  EL_x  PS_y
0.500116  0.000000  0.000000  0.000000  -27.332517  3.766848  -10.000000  65.904228  41.832137  3.675125  -43.491165  63.825314  -4.794761  18.152121  114.221388
0.500347  0.000000  0.000000  0.000000  -27.332517  3.766848  -5.714286  67.325462  37.897869  1.459321  -43.491165  63.825314  -4.794761  18.152121  114.221388
0.500579  0.000000  0.000000  0.000000  -27.332517  3.766848  -1.428571  68.493251  33.926299  -0.530321  -43.491165  63.825314  -4.794761  18.152121  114.221388
0.500810  0.000000  0.000000  0.000000  -27.332517  3.766848  2.857143  69.451859  29.925595  -2.341828  -43.491165  63.825314  -4.794761  18.152121  114.221388
0.501042  0.000000  0.000000  0.000000  -27.332517  3.766848  7.142857  70.234618  25.902052  -4.012756  -43.491165  63.825314  -4.794761  18.152121  114.221388
0.501273  0.000000  0.000000  0.000000  -27.332517  3.766848  11.428571  70.866725  21.860621  -5.573074  -43.491165  63.825314  -4.794761  18.152121  114.221388
0.501505  0.000000  0.000000  0.000000  -27.332517  3.766848  15.714286  71.367229  17.805331  -7.047255  -43.491165  63.825314  -4.794761  18.152121  114.221388
0.501737  0.000000  0.000000  0.000000  -27.332517  3.766848  20.000000  71.750331  13.739482  -8.455707  -43.491165  63.825314  -4.794761  18.152121  114.221388
0.501968  0.000000  0.000000  0.000000  -27.332517  3.766848  24.285714  72.026423  9.665911  -9.815993  -43.491165  63.825314  -4.794761  18.152121  114.221388
0.502200  0.000000  0.000000  0.000000  -27.332517  3.766848  28.571429  72.202759  5.587128  -11.143661  -43.491165  63.825314  -4.794761  18.152121  114.221388
0.502431  0.000000  0.000000  0.000000  -27.332517  3.766848  32.857143  72.283787  1.505413  -12.452941  -43.491165  63.825314  -4.794761  18.152121  114.221388
0.502663  0.000000  0.000000  0.000000  -27.332517  3.766848  37.142857  72.271580  -2.577090  -13.757312  -43.491165  63.825314  -4.794761  18.152121  114.221388
0.502894  0.000000  0.000000  0.000000  -27.332517  3.766848  41.428571  72.165822  -6.658251  -15.070088  -43.491165  63.825314  -4.794761  18.152121  114.221388
0.503126  0.000000  0.000000  0.000000  -27.332517  3.766848  45.714286  71.963848  -10.735890  -16.404903  -43.491165  63.825314  -4.794761  18.152121  114.221388
0.503357  0.000000  0.000000  0.000000  -27.332517  3.766848  50.000000  71.660477  -14.807682  -17.776267  -43.491165  63.825314  -4.794761  18.152121  114.221388
0.503589  0.000000  0.000000  0.000000  -32.571571  18.158401  -10.000000  57.169790  39.455682  23.306637  -22.178801  52.579176  8.010209  22.735684  118.073198
0.503820  0.000000  0.000000  0.000000  -32.571571  18.158401  -5.714286  58.919791  35.818520  20.442688  -22.178801  52.579176  8.010209  22.735684  118.073198
0.504052  0.000000  0.000000  0.000000  -32.571571  18.158401  -1.428571  60.379460  32.119419  17.831947  -22.178801  52.579176  8.010209  22.735684  118.073198
0.504283  0.000000  0.000000  0.000000  -32.571571  18.158401  2.857143  61.592068  28.370946  15.426103  -22.178801  52.579176  8.010209  22.735684  118.073198
0.504515  0.000000  0.000000  0.000000  -32.571571  18.158401  7.142857  62.591674  24.583133  13.185481  -22.178801  52.579176  8.010209  22.735684  118.073198
0.504746  0.000000  0.000000  0.000000  -32.571571  18.158401  11.428571  63.404947  20.764128  11.077090  -22.178801  52.579176  8.010209  22.735684  118.073198
0.504978  0.000000  0.000000  0.000000  -32.571571  18.158401  15.714286  64.052592  16.920678  9.073098  -22.178801  52.579176  8.010209  22.735684  118.073198
0.505210  0.000000  0.000000  0.000000  -32.571571  18.158401  20.000000  64.550431  13.058496  7.149553  -22.178801  52.579176  8.010209  22.735684  118.073198
0.505441  0.000000  0.000000  0.000000  -32.571571  18.158401  24.285714  64.910210  9.182539  5.285415  -22.178801  52.579176  8.010209  22.735684  118.073198
0.505673  0.000000  0.000000  0.000000  -32.571571  18.158401  28.571429  65.140202  5.297229  3.461714  -22.178801  52.579176  8.010209  22.735684  118.073198
0.505904  0.000000  0.000000  0.000000  -32.571571  18.158401  32.857143  65.245557  1.406664  1.660837  -22.178801  52.579176  8.010209  22.735684  118.073198
0.506136  0.000000  0.000000  0.000000  -32.571571  18.158401  37.142857  65.228650  -2.485292  -0.134029  -22.178801  52.579176  8.010209  22.735684  118.073198
0.506367  0.000000  0.000000  0.000000  -32.571571  18.158401  41.428571  65.089099  -6.374798  -1.939522  -22.178801  52.579176  8.010209  22.735684  118.073198
0.506599  0.000000  0.000000  0.000000  -32.571571  18.158401  45.714286  64.823787  -10.257931  -3.772625  -22.178801  52.579176  8.010209  22.735684  118.073198
0.506830  0.000000  0.000000  0.000000  -32.571571  18.158401  50.000000  64.426711  -14.130533  -5.651254  -22.178801  52.579176  8.010209  22.735684  118.073198
0.507062  0.000000  0.000000  0.000000  -35.084396  -4.668024  -10.000000  80.826620  56.232857  0.233465  -36.617723  62.600138  7.735125  9.206561  126.394652
0.507293  0.000000  0.000000  0.000000  -35.084396  -4.668024  -5.714286  81.725560  51.996557  -0.875284  -36.617723  62.600138  7.735125  9.206561  126.394652
0.507525  0.000000  0.000000  0.000000  -35.084396  -4.668024  -1.428571  82.426823  47.751640  -1.791793  -36.617723  62.600138  7.735125  9.206561  126.394652
0.507756  0.000000  0.000000  0.000000  -35.084396  -4.668024  2.857143  82.983296  43.500535  -2.569761  -36.617723  62.600138  7.735125  9.206561  126.394652
0.507988  0.000000  0.000000  0.000000  -35.084396  -4.668024  7.142857  83.430013  39.244856  -3.245171  -36.617723  62.600138  7.735125  9.206561  126.394652
0.508219  0.000000  0.000000  0.000000  -35.084396  -4.668024  11.428571  83.791088  34.985709  -3.843123  -36.617723  62.600138  7.735125  9.206561  126.394652
0.508451  0.000000  0.000000  0.000000  -35.084396  -4.668024  15.714286  84.083539  30.723930  -4.381821  -36.617723  62.600138  7.735125  9.206561  126.394652
0.508683  0.000000  0.000000  0.000000  -35.084396  -4.668024  20.000000  84.319640  26.460114  -4.874823  -36.617723  62.600138  7.735125  9.206561  126.394652
0.508914  0.000000  0.000000  0.000000  -35.084396  -4.668024  24.285714  84.508335  22.194727  -5.332547  -36.617723  62.600138  7.735125  9.206561  126.394652
0.509146  0.000000  0.000000  0.000000  -35.084396  -4.668024  28.571429  84.656172  17.928135  -5.763224  -36.617723  62.600138  7.735125  9.206561  126.394652
0.509377  0.000000  0.000000  0.000000  -35.084396  -4.668024  32.857143  84.767951  13.660642  -6.173606  -36.617723  62.600138  7.735125  9.206561  126.394652
0.509609  0.000000  0.000000  0.000000  -35.084396  -4.668024  37.142857  84.847089  9.392498  -6.569367  -36.617723  62.600138  7.735125  9.206561  126.394652
0.509840  0.000000  0.000000  0.000000  -35.084396  -4.668024  41.428571  84.895901  5.123924  -6.955467  -36.617723  62.600138  7.735125  9.206561  126.394652
0.510072  0.000000  0.000000  0.000000  -35.084396  -4.668024  45.714286  84.915780  0.855117  -7.336437  -36.617723  62.600138  7.735125  9.206561  126.394652
0.510303  0.000000  0.000000  0.000000  -35.084396  -4.668024  50.000000  84.907294  -3.413720  -7.716560  -36.617723  62.600138  7.735125  9.206561  126.394652
0.510535  0.000000  0.000000  0.000000  -39.765195  12.714396  -10.000000  59.121492  29.081954  15.763486  -45.736481  45.645955  -12.668332  25.186848  117.537985
0.510766  0.000000  0.000000  0.000000  -39.765195  12.714396  -5.714286  60.235517  25.381885  13.330511  -45.736481  45.645955  -12.668332  25.186848  117.537985
0.510998  0.000000  0.000000  0.000000  -39.765195  12.714396  -1.428571  61.148713  21.644194  11.043060  -45.736481  45.645955  -12.668332  25.186848  117.537985
0.511229  0.000000  0.000000  0.000000  -39.765195  12.714396  2.857143  61.883317  17.876793  8.871638  -45.736481  45.645955  -12.668332  25.186848  117.537985
0.511461  0.000000  0.000000  0.000000  -39.765195  12.714396  7.142857  62.456587  14.086343  6.790792  -45.736481  45.645955  -12.668332  25.186848  117.537985
0.511693  0.000000  0.000000  0.000000  -39.765195  12.714396  11.428571  62.881594  10.278644  4.778131  -45.736481  45.645955  -12.668332  25.186848  117.537985
0.511924  0.000000  0.000000  0.000000  -39.765195  12.714396  15.714286  63.167720  6.458832  2.813530  -45.736481  45.645955  -12.668332  25.186848  117.537985
0.512156  0.000000  0.000000  0.000000  -39.765195  12.714396  20.000000  63.321168  2.631602  0.878438  -45.736481  45.645955  -12.668332  25.186848  117.537985
0.512387  0.000000  0.000000  0.000000  -39.765195  12.714396  24.285714  63.345234  -1.198607  -1.044787  -45.736481  45.645955  -12.668332  25.186848  117.537985
0.512619  0.000000  0.000000  0.000000  -39.765195  12.714396  28.571429  63.240420  -5.027468  -2.973402  -45.736481  45.645955  -12.668332  25.186848  117.537985
0.512850  0.000000  0.000000  0.000000  -39.765195  12.714396  32.857143  63.004514  -8.850583  -4.924852  -45.736481  45.645955  -12.668332  25.186848  117.537985
0.513082  0.000000  0.000000  0.000000  -39.765195  12.714396  37.142857  62.632402  -12.663391  -6.917266  -45.736481  45.645955  -12.668332  25.186848  117.537985
0.513313  0.000000  0.000000  0.000000  -39.765195  12.714396  41.428571  62.115909  -16.460927  -8.970121  -45.736481  45.645955  -12.668332  25.186848  117.537985
0.513545  0.000000  0.000000  0.000000  -39.765195  12.714396  45.714286  61.443456  -20.237683  -11.104864  -45.736481  45.645955  -12.668332  25.186848  117.537985
0.513776  0.000000  0.000000  0.000000  -39.765195  12.714396  50.000000  60.599408  -23.987330  -13.345677  -45.736481  45.645955  -12.668332  25.186848  117.537985
0.514008  0.000000  0.000000  0.000000  -52.048360  10.016013  -10.000000  62.065674  26.546414  7.718163  -13.774636  71.372556  22.549420  8.981671  124.656865
0.514239  0.000000  0.000000  0.000000  -52.048360  10.016013  -5.714286  62.973425  22.743772  5.542723  -13.774636  71.372556  22.549420  8.981671  124.656865
0.514471  0.000000  0.000000  0.000000  -52.048360  10.016013  -1.428571  63.705355  18.913282  3.485613  -13.774636  71.372556  22.549420  8.981671  124.656865
0.514702  0.000000  0.000000  0.000000  -52.048360  10.016013  2.857143  64.279682  15.061149  1.521012  -13.774636  71.372556  22.549420  8.981671  124.656865
0.514934  0.000000  0.000000  0.000000  -52.048360  10.016013  7.142857  64.710249  11.192732  -0.373542  -13.774636  71.372556  22.549420  8.981671  124.656865
0.515166  0.000000  0.000000  0.000000  -52.048360  10.016013  11.428571  65.007012  7.312697  -2.217993  -13.774636  71.372556  22.549420  8.981671  124.656865
0.515397  0.000000  0.000000  0.000000  -52.048360  10.016013  15.714286  65.176727  3.425296  -4.030592  -13.774636  71.372556  22.549420  8.981671  124.656865
